<svg width="16" height="16" viewBox="0 0 16 16" fill="none" xmlns="http://www.w3.org/2000/svg">
<path d="M15.7946 10.3563C15.8491 10.3563 15.9013 10.3346 15.9398 10.2959C15.9784 10.2572 16 10.2048 16 10.1501V9.32497C16 9.27026 15.9784 9.21779 15.9398 9.17911C15.9013 9.14043 15.8491 9.11869 15.7946 9.11869H10.4902V5.28062H11.6705C11.7006 5.28075 11.7304 5.27419 11.7577 5.26139C11.785 5.2486 11.8091 5.2299 11.8284 5.20663C11.8476 5.18336 11.8615 5.15611 11.869 5.12681C11.8765 5.09752 11.8774 5.06692 11.8718 5.03722C11.8649 4.99734 11.0722 1.02862 5.99371 0H5.88691C0.802981 1.02862 0.0115701 4.99734 0.00335478 5.03722C-0.00207321 5.06701 -0.000902966 5.09763 0.00678236 5.12692C0.0144677 5.1562 0.0284795 5.18343 0.0478227 5.20666C0.0671658 5.2299 0.0913656 5.24857 0.118703 5.26135C0.146041 5.27413 0.175845 5.28071 0.206 5.28062H1.38216V9.11869H0.268984C0.214513 9.11869 0.162273 9.14043 0.123756 9.17911C0.0852392 9.21779 0.0636006 9.27026 0.0636006 9.32497V10.1501C0.0636006 10.2048 0.0852392 10.2572 0.123756 10.2959C0.162273 10.3346 0.214513 10.3563 0.268984 10.3563H1.91205V12.1894C1.79841 12.1509 1.69298 12.1083 1.58618 12.0629C1.15843 11.8605 0.68969 11.7607 0.216954 11.7714C0.188826 11.7704 0.160802 11.7753 0.134621 11.7857C0.108441 11.796 0.0846622 11.8117 0.0647614 11.8317C0.0448605 11.8517 0.0292621 11.8755 0.0189343 11.9018C0.00860653 11.9281 0.00376972 11.9563 0.00472404 11.9845V15.7937C0.00472404 15.8484 0.0263626 15.9009 0.0648795 15.9396C0.103396 15.9783 0.155637 16 0.210108 16H15.7371C15.7916 16 15.8438 15.9783 15.8823 15.9396C15.9209 15.9009 15.9425 15.8484 15.9425 15.7937V11.9845C15.9425 11.9298 15.9209 11.8774 15.8823 11.8387C15.8438 11.8 15.7916 11.7783 15.7371 11.7783C14.4021 11.7783 14.3775 12.3283 13.1479 12.3283C11.9183 12.3283 11.8937 11.7783 10.5601 11.7783C10.3601 11.7774 10.1605 11.793 9.96309 11.825V10.3563H15.7946ZM11.3967 4.86807H8.88962C8.45558 2.58668 7.55463 1.31465 6.87823 0.651826C10.2191 1.69007 11.1749 4.08973 11.3967 4.86807ZM6.14159 0.570692C6.70571 0.98324 7.93938 2.1645 8.46927 4.8667H6.14159V0.570692ZM5.73082 0.570692V4.86807H3.40314C3.93166 2.16588 5.16396 0.98324 5.72945 0.570692H5.73082ZM0.468891 4.86807C0.696182 4.08835 1.65053 1.69007 4.99418 0.651826C4.30956 1.31465 3.41546 2.58668 2.98142 4.86807H0.468891ZM1.79293 5.28062H10.0795V9.11869H7.30269V7.08208C7.30233 6.74992 7.17107 6.43141 6.9376 6.19615C6.70412 5.96089 6.38742 5.82801 6.05669 5.82656H5.81845C5.48712 5.82728 5.16958 5.9598 4.93529 6.19509C4.70101 6.43039 4.56907 6.74932 4.56835 7.08208V9.11869H1.79293V5.28062ZM6.89192 9.11869H4.97501V7.08208C4.97537 6.85862 5.06392 6.64442 5.22124 6.48641C5.37857 6.3284 5.59185 6.23947 5.81434 6.23911H6.05669C6.27906 6.23947 6.4922 6.32844 6.64931 6.48649C6.80642 6.64454 6.89466 6.85875 6.89466 7.08208L6.89192 9.11869ZM0.474368 9.53124H15.5892V9.94379H0.474368V9.53124ZM3.14162 10.3563H5.32005V11.7728C4.86803 11.7697 4.42111 11.8689 4.01244 12.0629C3.73777 12.1922 3.44337 12.274 3.14162 12.3049V10.3563ZM5.73082 10.3563H6.14159V11.847C6.02794 11.8209 5.79654 11.7893 5.73082 11.7838V10.3563ZM6.55235 10.3563H8.73079V12.2307C8.07299 12.393 7.38034 12.3341 6.75911 12.0629C6.69338 12.0354 6.62218 12.0065 6.55235 11.979V10.3563ZM2.73085 10.3563V12.3201C2.59339 12.3184 2.45618 12.3079 2.32008 12.2884V10.3632L2.73085 10.3563ZM15.5317 15.582H0.415491V14.0665C1.60398 14.1765 1.52046 14.6166 2.79794 14.6166C4.13704 14.6166 4.15484 14.0665 5.38441 14.0665C6.61397 14.0665 6.63861 14.6166 7.97224 14.6166C9.30586 14.6166 9.33051 14.0665 10.5601 14.0665C11.7896 14.0665 11.8143 14.6166 13.1479 14.6166C14.4309 14.6166 14.4788 14.1284 15.5276 14.0665L15.5317 15.582ZM10.5601 12.1839C11.7842 12.1839 11.8143 12.734 13.1479 12.734C14.4281 12.734 14.4911 12.2444 15.5317 12.1839V13.6471C14.3378 13.7076 14.3501 14.1972 13.1479 14.1972C11.9156 14.1972 11.8978 13.6471 10.5601 13.6471C9.22234 13.6471 9.20591 14.1972 7.97224 14.1972C6.73857 14.1972 6.72214 13.6471 5.38441 13.6471C4.04667 13.6471 4.02613 14.1972 2.79794 14.1972C1.5985 14.1972 1.59439 13.7117 0.426445 13.6471H0.415491V12.1894C0.764842 12.2055 1.10747 12.2915 1.42324 12.4425C3.82486 13.4615 4.38487 11.5046 6.59891 12.4425C7.02649 12.6454 7.49535 12.7452 7.96813 12.734C8.96766 12.734 9.25246 12.4205 9.807 12.2719C10.0529 12.2087 10.3062 12.1791 10.5601 12.1839ZM9.55232 11.9185C9.4154 11.9639 9.25794 12.0327 9.14156 12.0808V10.3563H9.55232V11.9185Z" fill="white"/>
<path d="M3.21194 6.2312H3.09008C2.89072 6.2312 2.69952 6.31074 2.55855 6.45232C2.41758 6.59391 2.33838 6.78594 2.33838 6.98616V8.44384C2.33838 8.49854 2.36002 8.55101 2.39853 8.58969C2.43705 8.62838 2.48929 8.65011 2.54376 8.65011H3.75826C3.81274 8.65011 3.86498 8.62838 3.90349 8.58969C3.94201 8.55101 3.96365 8.49854 3.96365 8.44384V6.98616C3.96365 6.78594 3.88445 6.59391 3.74348 6.45232C3.60251 6.31074 3.41131 6.2312 3.21194 6.2312ZM3.55288 8.23756H2.74915V6.98616C2.74951 6.89546 2.78554 6.80858 2.8494 6.74444C2.91326 6.6803 2.99977 6.64411 3.09008 6.64375H3.21194C3.30225 6.64411 3.38876 6.6803 3.45262 6.74444C3.51648 6.80858 3.55252 6.89546 3.55288 6.98616V8.23756ZM8.11103 8.65011H9.32416C9.37863 8.65011 9.43087 8.62838 9.46939 8.58969C9.50791 8.55101 9.52954 8.49854 9.52954 8.44384V6.98616C9.52954 6.78617 9.45053 6.59435 9.30986 6.45281C9.16918 6.31127 8.97834 6.23157 8.77921 6.2312H8.65872C8.45959 6.23157 8.26874 6.31127 8.12807 6.45281C7.98739 6.59435 7.90838 6.78617 7.90838 6.98616V8.44384C7.90838 8.49807 7.92964 8.55012 7.96757 8.58873C8.00549 8.62734 8.05703 8.64939 8.11103 8.65011ZM8.31641 6.98616C8.31641 6.94108 8.32527 6.89644 8.34249 6.85481C8.35971 6.81318 8.38495 6.77537 8.41675 6.74355C8.44856 6.71174 8.4863 6.68655 8.52783 6.66942C8.56935 6.65229 8.61383 6.64357 8.65872 6.64375H8.78195C8.87213 6.64411 8.9585 6.68035 9.02214 6.74453C9.08578 6.8087 9.12152 6.89559 9.12151 6.98616V8.23756H8.32052L8.31641 6.98616Z" fill="white"/>
</svg>
