<svg width="16" height="16" viewBox="0 0 16 16" fill="none" xmlns="http://www.w3.org/2000/svg">
<path d="M3.99916 7.42857H7.42773C7.57929 7.42857 7.72463 7.36837 7.8318 7.2612C7.93896 7.15404 7.99916 7.0087 7.99916 6.85714C7.99916 6.70559 7.93896 6.56025 7.8318 6.45308C7.72463 6.34592 7.57929 6.28571 7.42773 6.28571H3.99916C3.84761 6.28571 3.70227 6.34592 3.5951 6.45308C3.48794 6.56025 3.42773 6.70559 3.42773 6.85714C3.42773 7.0087 3.48794 7.15404 3.5951 7.2612C3.70227 7.36837 3.84761 7.42857 3.99916 7.42857ZM3.99916 5.14286H7.42773C7.57929 5.14286 7.72463 5.08265 7.8318 4.97549C7.93896 4.86833 7.99916 4.72298 7.99916 4.57143C7.99916 4.41988 7.93896 4.27453 7.8318 4.16737C7.72463 4.0602 7.57929 4 7.42773 4H3.99916C3.84761 4 3.70227 4.0602 3.5951 4.16737C3.48794 4.27453 3.42773 4.41988 3.42773 4.57143C3.42773 4.72298 3.48794 4.86833 3.5951 4.97549C3.70227 5.08265 3.84761 5.14286 3.99916 5.14286ZM11.9992 10.8571C11.8476 10.8571 11.7023 10.9173 11.5951 11.0245C11.4879 11.1317 11.4277 11.277 11.4277 11.4286V12.5714C11.4277 12.723 11.4879 12.8683 11.5951 12.9755C11.7023 13.0827 11.8476 13.1429 11.9992 13.1429C12.1507 13.1429 12.2961 13.0827 12.4032 12.9755C12.5104 12.8683 12.5706 12.723 12.5706 12.5714V11.4286C12.5706 11.277 12.5104 11.1317 12.4032 11.0245C12.2961 10.9173 12.1507 10.8571 11.9992 10.8571ZM11.9992 7.42857C11.8476 7.42857 11.7023 7.48878 11.5951 7.59594C11.4879 7.7031 11.4277 7.84845 11.4277 8V9.14286C11.4277 9.29441 11.4879 9.43975 11.5951 9.54692C11.7023 9.65408 11.8476 9.71429 11.9992 9.71429C12.1507 9.71429 12.2961 9.65408 12.4032 9.54692C12.5104 9.43975 12.5706 9.29441 12.5706 9.14286V8C12.5706 7.84845 12.5104 7.7031 12.4032 7.59594C12.2961 7.48878 12.1507 7.42857 11.9992 7.42857Z" fill="#1D1D1D"/>
<path d="M15.4286 14.8571H14.8571V6.28571C14.8571 5.83106 14.6765 5.39502 14.355 5.07353C14.0336 4.75204 13.5975 4.57143 13.1429 4.57143H10.2857V2.85714C10.2857 2.40249 10.1051 1.96645 9.78361 1.64496C9.46212 1.32347 9.02609 1.14286 8.57143 1.14286H6.28571V0.571429C6.28571 0.419876 6.22551 0.274531 6.11835 0.167368C6.01118 0.0602039 5.86584 0 5.71429 0C5.56273 0 5.41739 0.0602039 5.31023 0.167368C5.20306 0.274531 5.14286 0.419876 5.14286 0.571429V1.14286H2.85714C2.40249 1.14286 1.96645 1.32347 1.64496 1.64496C1.32347 1.96645 1.14286 2.40249 1.14286 2.85714V14.8571H0.571429C0.419876 14.8571 0.274531 14.9173 0.167368 15.0245C0.0602039 15.1317 0 15.277 0 15.4286C0 15.5801 0.0602039 15.7255 0.167368 15.8326C0.274531 15.9398 0.419876 16 0.571429 16H15.4286C15.5801 16 15.7255 15.9398 15.8326 15.8326C15.9398 15.7255 16 15.5801 16 15.4286C16 15.277 15.9398 15.1317 15.8326 15.0245C15.7255 14.9173 15.5801 14.8571 15.4286 14.8571ZM2.28571 2.85714C2.28571 2.70559 2.34592 2.56025 2.45308 2.45308C2.56025 2.34592 2.70559 2.28571 2.85714 2.28571H8.57143C8.72298 2.28571 8.86833 2.34592 8.97549 2.45308C9.08265 2.56025 9.14286 2.70559 9.14286 2.85714V14.8571H8V10.2857C8 9.98261 7.87959 9.69192 7.66527 9.47759C7.45094 9.26327 7.16025 9.14286 6.85714 9.14286H4.57143C4.26832 9.14286 3.97763 9.26327 3.76331 9.47759C3.54898 9.69192 3.42857 9.98261 3.42857 10.2857V14.8571H2.28571V2.85714ZM4.57143 14.8571V10.2857H6.85714V14.8571H4.57143ZM10.2857 14.8571V5.71429H13.1429C13.2944 5.71429 13.4398 5.77449 13.5469 5.88165C13.6541 5.98882 13.7143 6.13416 13.7143 6.28571V14.8571H10.2857Z" fill="#1D1D1D"/>
</svg>
