<svg width="17" height="19" viewBox="0 0 17 19" fill="none" xmlns="http://www.w3.org/2000/svg">
<path d="M6.65385 2.29999C6.65385 2.77738 6.84835 3.23522 7.19457 3.57278C7.54079 3.91035 8.01037 4.09999 8.5 4.09999C8.98963 4.09999 9.45921 3.91035 9.80543 3.57278C10.1516 3.23522 10.3462 2.77738 10.3462 2.29999C10.3462 1.82261 10.1516 1.36477 9.80543 1.02721C9.45921 0.689642 8.98963 0.5 8.5 0.5C8.01037 0.5 7.54079 0.689642 7.19457 1.02721C6.84835 1.36477 6.65385 1.82261 6.65385 2.29999ZM12.8077 5.89998C12.8077 6.37737 13.0022 6.8352 13.3484 7.17277C13.6946 7.51033 14.1642 7.69997 14.6538 7.69997C15.1435 7.69997 15.6131 7.51033 15.9593 7.17277C16.3055 6.8352 16.5 6.37737 16.5 5.89998C16.5 5.42259 16.3055 4.96476 15.9593 4.62719C15.6131 4.28963 15.1435 4.09999 14.6538 4.09999C14.1642 4.09999 13.6946 4.28963 13.3484 4.62719C13.0022 4.96476 12.8077 5.42259 12.8077 5.89998ZM0.5 5.89998C0.5 6.37737 0.694505 6.8352 1.04073 7.17277C1.38695 7.51033 1.85652 7.69997 2.34615 7.69997C2.83578 7.69997 3.30536 7.51033 3.65158 7.17277C3.9978 6.8352 4.19231 6.37737 4.19231 5.89998C4.19231 5.42259 3.9978 4.96476 3.65158 4.62719C3.30536 4.28963 2.83578 4.09999 2.34615 4.09999C1.85652 4.09999 1.38695 4.28963 1.04073 4.62719C0.694505 4.96476 0.5 5.42259 0.5 5.89998ZM12.8077 11.9C12.8077 12.3773 13.0022 12.8352 13.3484 13.1727C13.6946 13.5103 14.1642 13.7 14.6538 13.7C15.1435 13.7 15.6131 13.5103 15.9593 13.1727C16.3055 12.8352 16.5 12.3773 16.5 11.9C16.5 11.4226 16.3055 10.9647 15.9593 10.6272C15.6131 10.2896 15.1435 10.1 14.6538 10.1C14.1642 10.1 13.6946 10.2896 13.3484 10.6272C13.0022 10.9647 12.8077 11.4226 12.8077 11.9ZM6.65385 8.89997C6.65385 9.37736 6.84835 9.83519 7.19457 10.1728C7.54079 10.5103 8.01037 10.7 8.5 10.7C8.98963 10.7 9.45921 10.5103 9.80543 10.1728C10.1516 9.83519 10.3462 9.37736 10.3462 8.89997C10.3462 8.42258 10.1516 7.96475 9.80543 7.62718C9.45921 7.28962 8.98963 7.09998 8.5 7.09998C8.01037 7.09998 7.54079 7.28962 7.19457 7.62718C6.84835 7.96475 6.65385 8.42258 6.65385 8.89997ZM0.5 11.9C0.5 12.3773 0.694505 12.8352 1.04073 13.1727C1.38695 13.5103 1.85652 13.7 2.34615 13.7C2.83578 13.7 3.30536 13.5103 3.65158 13.1727C3.9978 12.8352 4.19231 12.3773 4.19231 11.9C4.19231 11.4226 3.9978 10.9647 3.65158 10.6272C3.30536 10.2896 2.83578 10.1 2.34615 10.1C1.85652 10.1 1.38695 10.2896 1.04073 10.6272C0.694505 10.9647 0.5 11.4226 0.5 11.9Z" stroke="black" stroke-linecap="round" stroke-linejoin="round"/>
<path d="M13.524 13.324C12.7671 14.1419 11.8123 14.7621 10.7466 15.128M15.1462 7.63525C15.3072 8.44543 15.312 9.27777 15.1601 10.0896M10.3298 2.54407C11.5605 2.88167 12.6682 3.55206 13.524 4.47686M3.47603 4.47686C4.33225 3.55147 5.43972 2.88136 6.67029 2.54407M1.85387 10.164C1.68974 9.32871 1.68974 8.47058 1.85387 7.63525M6.25346 15.128C5.20665 14.7665 4.26638 14.161 3.51459 13.364" stroke="black" stroke-linecap="round" stroke-linejoin="round"/>
<path d="M5.21058 17.6488C5.16736 17.7402 5.14842 17.8407 5.1555 17.9412C5.16259 18.0416 5.19547 18.1387 5.25113 18.2234C5.30678 18.3082 5.38341 18.378 5.47398 18.4263C5.56454 18.4746 5.66611 18.5 5.76935 18.5H11.2307C11.3339 18.5 11.4355 18.4746 11.5261 18.4263C11.6166 18.378 11.6933 18.3082 11.7489 18.2234C11.8046 18.1387 11.8374 18.0416 11.8445 17.9412C11.8516 17.8407 11.8327 17.7402 11.7895 17.6488L9.05879 11.0488C9.00953 10.9447 8.93073 10.8566 8.83171 10.7948C8.73268 10.733 8.61758 10.7002 8.50002 10.7002C8.38246 10.7002 8.26735 10.733 8.16833 10.7948C8.06931 10.8566 7.9905 10.9447 7.94125 11.0488L5.21058 17.6488Z" stroke="black" stroke-linecap="round" stroke-linejoin="round"/>
</svg>
