<svg width="15" height="12" viewBox="0 0 15 12" fill="none" xmlns="http://www.w3.org/2000/svg">
<path d="M12.2951 2.08696H1.47541V0.782609C1.47541 0.575048 1.39769 0.375988 1.25934 0.229221C1.12099 0.0824531 0.933356 0 0.737705 0C0.542053 0 0.354415 0.0824531 0.216069 0.229221C0.0777223 0.375988 0 0.575048 0 0.782609V11.2174C0 11.425 0.0777223 11.624 0.216069 11.7708C0.354415 11.9175 0.542053 12 0.737705 12C0.933356 12 1.12099 11.9175 1.25934 11.7708C1.39769 11.624 1.47541 11.425 1.47541 11.2174V9.3913H13.5246V11.2174C13.5246 11.425 13.6023 11.624 13.7407 11.7708C13.879 11.9175 14.0666 12 14.2623 12C14.4579 12 14.6456 11.9175 14.7839 11.7708C14.9223 11.624 15 11.425 15 11.2174V4.95652C14.9992 4.19573 14.7139 3.46635 14.2069 2.92839C13.6998 2.39042 13.0122 2.08782 12.2951 2.08696ZM5.40984 7.82609H1.47541V3.65217H5.40984V7.82609ZM13.5246 7.82609H6.88525V3.65217H12.2951C12.6212 3.65217 12.9339 3.7896 13.1645 4.03421C13.3951 4.27882 13.5246 4.61059 13.5246 4.95652V7.82609Z" fill="white"/>
</svg>
