<svg width="16" height="16" viewBox="0 0 16 16" fill="none" xmlns="http://www.w3.org/2000/svg">
<path d="M14.75 7.7496H5.40027ZM2.10005 7.7496H0.75ZM14.75 13.0126H10.4002ZM7.09995 13.0126H0.75ZM14.75 2.48656H12.4003ZM9.10005 2.48656H0.75ZM10.7498 4.22311C10.9664 4.22311 11.181 4.1782 11.3811 4.09093C11.5813 4.00366 11.7631 3.87574 11.9163 3.71449C12.0695 3.55323 12.191 3.3618 12.2739 3.15111C12.3568 2.94042 12.3995 2.71461 12.3995 2.48656C12.3995 2.25851 12.3568 2.03269 12.2739 1.82201C12.191 1.61132 12.0695 1.41988 11.9163 1.25863C11.7631 1.09737 11.5813 0.969458 11.3811 0.882188C11.181 0.794917 10.9664 0.75 10.7498 0.75C10.3122 0.75 9.89263 0.932958 9.58325 1.25863C9.27386 1.58429 9.10005 2.02599 9.10005 2.48656C9.10005 2.94712 9.27386 3.38882 9.58325 3.71449C9.89263 4.04016 10.3122 4.22311 10.7498 4.22311ZM3.74978 9.48616C4.18732 9.48616 4.60693 9.3032 4.91632 8.97753C5.2257 8.65186 5.39951 8.21016 5.39951 7.7496C5.39951 7.28904 5.2257 6.84734 4.91632 6.52167C4.60693 6.196 4.18732 6.01304 3.74978 6.01304C3.31225 6.01304 2.89263 6.196 2.58325 6.52167C2.27386 6.84734 2.10005 7.28904 2.10005 7.7496C2.10005 8.21016 2.27386 8.65186 2.58325 8.97753C2.89263 9.3032 3.31225 9.48616 3.74978 9.48616ZM8.74968 14.75C9.18731 14.75 9.60702 14.567 9.91648 14.2413C10.2259 13.9155 10.4002 13.4733 10.4002 13.0126C10.4002 12.552 10.2259 12.1106 9.91648 11.7848C9.60702 11.4591 9.18731 11.2761 8.74968 11.2761C8.31214 11.2761 7.89253 11.459 7.58314 11.7847C7.27376 12.1104 7.09995 12.5521 7.09995 13.0126C7.09995 13.4732 7.27376 13.9149 7.58314 14.2406C7.89253 14.5662 8.31214 14.75 8.74968 14.75Z" fill="white"/>
<path d="M14.75 7.7496H5.40027M2.10005 7.7496H0.75M2.10005 7.7496C2.10005 7.28904 2.27386 6.84734 2.58325 6.52167C2.89263 6.196 3.31225 6.01304 3.74978 6.01304C4.18732 6.01304 4.60693 6.196 4.91632 6.52167C5.2257 6.84734 5.39951 7.28904 5.39951 7.7496C5.39951 8.21016 5.2257 8.65186 4.91632 8.97753C4.60693 9.3032 4.18732 9.48616 3.74978 9.48616C3.31225 9.48616 2.89263 9.3032 2.58325 8.97753C2.27386 8.65186 2.10005 8.21016 2.10005 7.7496ZM14.75 13.0126H10.4002M10.4002 13.0126C10.4002 13.4733 10.2259 13.9155 9.91648 14.2413C9.60702 14.567 9.18731 14.75 8.74968 14.75C8.31214 14.75 7.89253 14.5662 7.58314 14.2406C7.27376 13.9149 7.09995 13.4732 7.09995 13.0126M10.4002 13.0126C10.4002 12.552 10.2259 12.1106 9.91648 11.7848C9.60702 11.4591 9.18731 11.2761 8.74968 11.2761C8.31214 11.2761 7.89253 11.459 7.58314 11.7847C7.27376 12.1104 7.09995 12.5521 7.09995 13.0126M7.09995 13.0126H0.75M14.75 2.48656H12.4003M9.10005 2.48656H0.75M9.10005 2.48656C9.10005 2.02599 9.27386 1.58429 9.58325 1.25863C9.89263 0.932958 10.3122 0.75 10.7498 0.75C10.9664 0.75 11.181 0.794917 11.3811 0.882188C11.5813 0.969458 11.7631 1.09737 11.9163 1.25863C12.0695 1.41988 12.191 1.61132 12.2739 1.82201C12.3568 2.03269 12.3995 2.25851 12.3995 2.48656C12.3995 2.71461 12.3568 2.94042 12.2739 3.15111C12.191 3.3618 12.0695 3.55323 11.9163 3.71449C11.7631 3.87574 11.5813 4.00366 11.3811 4.09093C11.181 4.1782 10.9664 4.22311 10.7498 4.22311C10.3122 4.22311 9.89263 4.04016 9.58325 3.71449C9.27386 3.38882 9.10005 2.94712 9.10005 2.48656Z" stroke="white" stroke-width="1.5" stroke-miterlimit="10" stroke-linecap="round"/>
</svg>
