<svg width="20" height="18" viewBox="0 0 20 18" fill="none" xmlns="http://www.w3.org/2000/svg">
<path fill-rule="evenodd" clip-rule="evenodd" d="M16.494 0.801032C18.5889 2.02203 20.0629 4.50103 19.9979 7.39302C19.9169 11.003 17.108 14.187 12.319 17.031C11.609 17.453 10.861 18 10 18C9.15501 18 8.37501 17.443 7.68002 17.03C2.89305 14.187 0.0830671 11.002 0.00206768 7.39302C-0.0629319 4.50103 1.41106 2.02303 3.50604 0.801032C5.46603 -0.339966 7.92801 -0.346966 10 1.33803C12.072 -0.346966 14.534 -0.340965 16.494 0.801032ZM15.487 2.53003C14.093 1.71803 12.351 1.74703 10.843 3.27303C10.7324 3.38399 10.6011 3.47204 10.4564 3.53211C10.3117 3.59219 10.1566 3.62312 10 3.62312C9.84336 3.62312 9.68826 3.59219 9.5436 3.53211C9.39894 3.47204 9.26756 3.38399 9.15701 3.27303C7.64902 1.74703 5.90703 1.71803 4.51304 2.53003C3.06905 3.37203 1.95305 5.15803 2.00205 7.35002C2.05805 9.86102 4.04204 12.544 8.70201 15.312C9.11001 15.555 9.536 15.866 10 15.995C10.464 15.866 10.89 15.555 11.298 15.312C15.958 12.544 17.9419 9.86202 17.9979 7.34902C18.0479 5.15902 16.931 3.37203 15.487 2.53003Z" fill="white" fill-opacity="0.4"/>
</svg>
