<svg width="16" height="12" viewBox="0 0 16 12" fill="none" xmlns="http://www.w3.org/2000/svg">
<path d="M5.34224 7.51934C6.8808 7.51934 8.20568 7.78811 9.16194 8.43126C10.1524 9.09786 10.6845 10.125 10.6845 11.4656C10.6759 11.6013 10.6159 11.7285 10.5166 11.8215C10.4174 11.9145 10.2864 11.9663 10.1502 11.9663C10.0141 11.9663 9.88313 11.9145 9.78389 11.8215C9.68465 11.7285 9.62462 11.6013 9.61603 11.4656C9.61603 10.4439 9.23352 9.7634 8.56574 9.31438C7.8627 8.84295 6.78464 8.58591 5.34224 8.58591C3.89983 8.58591 2.8207 8.84295 2.11873 9.31544C1.45095 9.76447 1.06845 10.4449 1.06845 11.4667C1.05985 11.6023 0.999827 11.7296 0.900586 11.8226C0.801344 11.9156 0.67034 11.9673 0.534224 11.9673C0.398107 11.9673 0.267103 11.9156 0.167861 11.8226C0.06862 11.7296 0.00859588 11.6023 0 11.4667C0 10.125 0.531018 9.09786 1.52147 8.43126C2.47773 7.78811 3.80367 7.51934 5.34224 7.51934ZM10.6578 7.51934C12.1953 7.51934 13.5212 7.78811 14.4775 8.43126C15.4679 9.09786 16 10.125 16 11.4667C16 11.6082 15.9437 11.7438 15.8435 11.8438C15.7433 11.9438 15.6075 12 15.4658 12C15.3241 12 15.1882 11.9438 15.088 11.8438C14.9878 11.7438 14.9316 11.6082 14.9316 11.4667C14.9316 10.4449 14.549 9.76447 13.8802 9.31544C13.3267 8.94321 12.5414 8.7075 11.5275 8.62217C11.2749 8.21033 10.9615 7.83889 10.5979 7.5204L10.6578 7.51934ZM5.34224 1.55122e-05C6.22017 0.0221002 7.05471 0.38576 7.66782 1.01342C8.28094 1.64108 8.6241 2.48304 8.6241 3.35971C8.6241 4.23638 8.28094 5.07835 7.66782 5.70601C7.05471 6.33367 6.22017 6.69732 5.34224 6.71941C4.44962 6.71941 3.59357 6.36544 2.96239 5.73538C2.33122 5.10531 1.97663 4.25076 1.97663 3.35971C1.97663 2.46867 2.33122 1.61411 2.96239 0.984048C3.59357 0.353982 4.44962 1.55122e-05 5.34224 1.55122e-05ZM10.6578 1.55122e-05C11.5504 1.55122e-05 12.4064 0.353982 13.0376 0.984048C13.6688 1.61411 14.0234 2.46867 14.0234 3.35971C14.0234 4.25076 13.6688 5.10531 13.0376 5.73538C12.4064 6.36544 11.5504 6.71941 10.6578 6.71941C10.0979 6.71941 9.57222 6.58076 9.10851 6.33971C9.33211 6.05903 9.52349 5.75422 9.67906 5.43099C10.0292 5.59634 10.4155 5.67062 10.8021 5.64693C11.1887 5.62325 11.5631 5.50236 11.8903 5.29552C12.2175 5.08868 12.4871 4.80259 12.6739 4.46386C12.8606 4.12513 12.9586 3.74476 12.9586 3.35811C12.9586 2.97146 12.8606 2.59109 12.6739 2.25236C12.4871 1.91363 12.2175 1.62755 11.8903 1.42071C11.5631 1.21386 11.1887 1.09298 10.8021 1.06929C10.4155 1.04561 10.0292 1.11989 9.67906 1.28523C9.52301 0.962692 9.33128 0.658604 9.10745 0.378648C9.58525 0.128345 10.1171 -0.00163433 10.6567 1.55122e-05M5.34224 1.06659C4.74512 1.08477 4.17856 1.33433 3.76263 1.76239C3.34669 2.19046 3.11408 2.76337 3.11408 3.35971C3.11408 3.95606 3.34669 4.52897 3.76263 4.95703C4.17856 5.38509 4.74512 5.63466 5.34224 5.65284C5.95148 5.65284 6.53577 5.41124 6.96658 4.9812C7.39738 4.55115 7.6394 3.96789 7.6394 3.35971C7.6394 2.75154 7.39738 2.16827 6.96658 1.73823C6.53577 1.30818 5.95148 1.06659 5.34224 1.06659Z" fill="white"/>
</svg>
