<svg width="12" height="10" viewBox="0 0 12 10" fill="none" xmlns="http://www.w3.org/2000/svg">
<path d="M1.46244 0.489938C1.3312 0.114999 0.904685 -0.085861 0.513323 0.0368869C0.12196 0.159635 -0.0912975 0.568051 0.0375944 0.940758L1.20934 4.2862H0.750015C0.335217 4.2862 9.85332e-05 4.60534 9.85332e-05 5.00037C9.85332e-05 5.39539 0.335217 5.71453 0.750015 5.71453H1.7085L3.03726 9.51079C3.14272 9.81208 3.44503 10.0107 3.7778 9.99955C4.11058 9.98839 4.39648 9.76745 4.47616 9.45946L5.46043 5.71453H6.53843L7.5227 9.45946C7.60238 9.76745 7.88828 9.98839 8.22106 9.99955C8.55383 10.0107 8.85614 9.81208 8.9616 9.51079L10.2904 5.71453H11.2488C11.6636 5.71453 11.9988 5.39539 11.9988 5.00037C11.9988 4.60534 11.6636 4.2862 11.2488 4.2862H10.7895L11.9613 0.940758C12.0925 0.565819 11.8792 0.161867 11.4879 0.0368869C11.0965 -0.0880928 10.67 0.114999 10.5388 0.487706L9.20767 4.2862H7.70783L6.72591 0.541269C6.64389 0.224356 6.34392 0.00117843 5.99943 0.00117843C5.65494 0.00117843 5.35497 0.224356 5.27295 0.541269L4.28868 4.2862H2.78885L1.46244 0.489938ZM3.29036 5.71453H3.91373L3.64657 6.73223L3.29036 5.71453ZM5.83539 4.2862L5.99943 3.65907L6.16348 4.2862H5.83539ZM8.08514 5.71453H8.7085L8.35229 6.73223L8.08514 5.71453Z" fill="white"/>
</svg>
